<?xml version="1.0" encoding="UTF-8" standalone="no"?>
<!DOCTYPE svg PUBLIC "-//W3C//DTD SVG 1.1//EN"
 "http://www.w3.org/Graphics/SVG/1.1/DTD/svg11.dtd">
<!-- Generated by graphviz version 2.38.0 (20140413.2041)
 -->
<!-- Title: architecture Pages: 1 -->
<svg width="346pt" height="260pt"
 viewBox="0.00 0.00 346.12 260.00" xmlns="http://www.w3.org/2000/svg" xmlns:xlink="http://www.w3.org/1999/xlink">
<g id="graph0" class="graph" transform="scale(1 1) rotate(0) translate(4 256)">
<title>architecture</title>
<polygon fill="white" stroke="none" points="-4,4 -4,-256 342.121,-256 342.121,4 -4,4"/>
<!-- log_files_1 -->
<g id="node1" class="node"><title>log_files_1</title>
<ellipse fill="lightgreen" stroke="lightgreen" cx="49.4145" cy="-234" rx="49.3291" ry="18"/>
<text text-anchor="middle" x="49.4145" y="-229.8" font-family="Times,serif" font-size="14.00">log_files_1</text>
</g>
<!-- log_tool_1 -->
<g id="node2" class="node"><title>log_tool_1</title>
<polygon fill="lightblue" stroke="lightblue" points="92.5841,-180 16.2448,-180 16.2448,-144 92.5841,-144 92.5841,-180"/>
<text text-anchor="middle" x="54.4145" y="-157.8" font-family="Times,serif" font-size="14.00">log_tool_1</text>
</g>
<!-- log_files_1&#45;&gt;log_tool_1 -->
<g id="edge1" class="edge"><title>log_files_1&#45;&gt;log_tool_1</title>
<path fill="none" stroke="black" d="M50.6504,-215.697C51.2014,-207.983 51.8636,-198.712 52.4779,-190.112"/>
<polygon fill="black" stroke="black" points="55.9713,-190.328 53.1927,-180.104 48.9891,-189.83 55.9713,-190.328"/>
<text text-anchor="middle" x="28.4986" y="-204.497" font-family="Times,serif" font-size="14.00">watcher</text>
</g>
<!-- log_tool_0 -->
<g id="node5" class="node"><title>log_tool_0</title>
<polygon fill="lightblue" stroke="lightblue" points="198.584,-108 122.245,-108 122.245,-72 198.584,-72 198.584,-108"/>
<text text-anchor="middle" x="160.414" y="-85.8" font-family="Times,serif" font-size="14.00">log_tool_0</text>
</g>
<!-- log_tool_1&#45;&gt;log_tool_0 -->
<g id="edge3" class="edge"><title>log_tool_1&#45;&gt;log_tool_0</title>
<path fill="none" stroke="black" d="M80.345,-143.876C94.0762,-134.808 111.121,-123.552 125.951,-113.759"/>
<polygon fill="black" stroke="black" points="127.968,-116.621 134.384,-108.19 124.111,-110.78 127.968,-116.621"/>
<text text-anchor="middle" x="58.9519" y="-132.676" font-family="Times,serif" font-size="14.00">outflow</text>
</g>
<!-- log_files_2 -->
<g id="node3" class="node"><title>log_files_2</title>
<ellipse fill="lightgreen" stroke="lightgreen" cx="166.414" cy="-234" rx="49.3291" ry="18"/>
<text text-anchor="middle" x="166.414" y="-229.8" font-family="Times,serif" font-size="14.00">log_files_2</text>
</g>
<!-- log_tool_2 -->
<g id="node4" class="node"><title>log_tool_2</title>
<polygon fill="lightblue" stroke="lightblue" points="198.584,-180 122.245,-180 122.245,-144 198.584,-144 198.584,-180"/>
<text text-anchor="middle" x="160.414" y="-157.8" font-family="Times,serif" font-size="14.00">log_tool_2</text>
</g>
<!-- log_files_2&#45;&gt;log_tool_2 -->
<g id="edge2" class="edge"><title>log_files_2&#45;&gt;log_tool_2</title>
<path fill="none" stroke="black" d="M164.931,-215.697C164.27,-207.983 163.476,-198.712 162.738,-190.112"/>
<polygon fill="black" stroke="black" points="166.222,-189.769 161.881,-180.104 159.247,-190.367 166.222,-189.769"/>
<text text-anchor="middle" x="142.779" y="-204.497" font-family="Times,serif" font-size="14.00">watcher</text>
</g>
<!-- log_tool_2&#45;&gt;log_tool_0 -->
<g id="edge4" class="edge"><title>log_tool_2&#45;&gt;log_tool_0</title>
<path fill="none" stroke="black" d="M160.414,-143.697C160.414,-135.983 160.414,-126.712 160.414,-118.112"/>
<polygon fill="black" stroke="black" points="163.915,-118.104 160.414,-108.104 156.915,-118.104 163.915,-118.104"/>
<text text-anchor="middle" x="139.021" y="-132.497" font-family="Times,serif" font-size="14.00">outflow</text>
</g>
<!-- elasticsearch -->
<g id="node7" class="node"><title>elasticsearch</title>
<ellipse fill="lightgreen" stroke="lightgreen" cx="110.414" cy="-18" rx="55.0578" ry="18"/>
<text text-anchor="middle" x="110.414" y="-13.8" font-family="Times,serif" font-size="14.00">elasticsearch</text>
</g>
<!-- log_tool_0&#45;&gt;elasticsearch -->
<g id="edge6" class="edge"><title>log_tool_0&#45;&gt;elasticsearch</title>
<path fill="none" stroke="black" d="M148.055,-71.6966C142.094,-63.3514 134.832,-53.1846 128.283,-44.0155"/>
<polygon fill="black" stroke="black" points="130.948,-41.7253 122.288,-35.6223 125.252,-45.794 130.948,-41.7253"/>
<text text-anchor="middle" x="114.627" y="-60.4966" font-family="Times,serif" font-size="14.00">store/search</text>
</g>
<!-- user -->
<g id="node8" class="node"><title>user</title>
<ellipse fill="lightgreen" stroke="lightgreen" cx="210.414" cy="-18" rx="27" ry="18"/>
<text text-anchor="middle" x="210.414" y="-13.8" font-family="Times,serif" font-size="14.00">user</text>
</g>
<!-- log_tool_0&#45;&gt;user -->
<g id="edge7" class="edge"><title>log_tool_0&#45;&gt;user</title>
<path fill="none" stroke="black" d="M172.774,-71.6966C178.973,-63.0174 186.58,-52.3679 193.329,-42.9196"/>
<polygon fill="black" stroke="black" points="196.256,-44.8429 199.221,-34.6712 190.56,-40.7742 196.256,-44.8429"/>
<text text-anchor="middle" x="160.333" y="-60.4966" font-family="Times,serif" font-size="14.00">GUI</text>
</g>
<!-- other_systems -->
<g id="node6" class="node"><title>other_systems</title>
<ellipse fill="lightgreen" stroke="lightgreen" cx="277.414" cy="-162" rx="60.9133" ry="18"/>
<text text-anchor="middle" x="277.414" y="-157.8" font-family="Times,serif" font-size="14.00">other_systems</text>
</g>
<!-- other_systems&#45;&gt;log_tool_0 -->
<g id="edge5" class="edge"><title>other_systems&#45;&gt;log_tool_0</title>
<path fill="none" stroke="black" d="M251.738,-145.638C235.928,-136.179 215.389,-123.891 197.795,-113.364"/>
<polygon fill="black" stroke="black" points="199.281,-110.175 188.903,-108.044 195.687,-116.182 199.281,-110.175"/>
<text text-anchor="middle" x="230.345" y="-134.438" font-family="Times,serif" font-size="14.00">outflow</text>
</g>
</g>
</svg>
